<?xml version="1.0" standalone="no"?>
<!DOCTYPE svg PUBLIC "-//W3C//DTD SVG 20010904//EN"
 "http://www.w3.org/TR/2001/REC-SVG-20010904/DTD/svg10.dtd">
<svg version="1.0" xmlns="http://www.w3.org/2000/svg"
 width="626.000000pt" height="50.000000pt" viewBox="0 0 626.000000 50.000000"
 preserveAspectRatio="xMidYMid meet">

<g transform="translate(0.000000,50.000000) scale(0.100000,-0.100000)"
fill="#000000" stroke="none">
<path d="M945 394 c-71 -16 -176 -54 -390 -142 -187 -76 -236 -87 -407 -87
l-148 0 0 -37 0 -36 84 -7 c164 -14 310 18 567 125 266 111 317 124 489 124
174 1 223 -11 470 -114 283 -117 352 -134 530 -134 164 1 243 20 508 128 244
99 303 115 438 123 165 9 272 -16 551 -133 412 -172 577 -166 1075 41 182 75
296 99 443 92 135 -6 223 -31 457 -128 251 -105 412 -139 574 -124 l74 7 0 36
0 37 -158 1 c-149 0 -162 2 -253 32 -53 18 -161 59 -240 93 -224 94 -288 111
-459 116 -200 7 -283 -14 -625 -157 -155 -65 -267 -90 -400 -90 -146 0 -250
26 -473 119 -247 103 -320 122 -478 128 -200 8 -289 -13 -587 -137 -202 -84
-309 -110 -452 -110 -146 0 -246 25 -470 118 -264 110 -321 124 -500 128 -109
3 -169 -1 -220 -12z"/>
</g>
</svg>
